<svg width="27" height="26" viewBox="0 0 27 26" fill="none" xmlns="http://www.w3.org/2000/svg">
<path fill-rule="evenodd" clip-rule="evenodd" d="M27 11.5C27 11.9265 26.9727 12.3476 26.9196 12.7621C26.515 17.0905 22.71 22.8553 14.6569 25.7717C14.336 25.8879 14 25.6476 14 25.3063V22.9922C13.8341 22.9974 13.6674 23 13.5 23C6.04416 23 0 17.8513 0 11.5C0 5.14874 6.04416 0 13.5 0C20.9558 0 27 5.14874 27 11.5ZM8 14C9.10458 14 10 13.1046 10 12C10 10.8954 9.10458 10 8 10C6.89542 10 6 10.8954 6 12C6 13.1046 6.89542 14 8 14ZM14 14C15.1046 14 16 13.1046 16 12C16 10.8954 15.1046 10 14 10C12.8954 10 12 10.8954 12 12C12 13.1046 12.8954 14 14 14ZM22 12C22 13.1046 21.1046 14 20 14C18.8954 14 18 13.1046 18 12C18 10.8954 18.8954 10 20 10C21.1046 10 22 10.8954 22 12Z" fill="white"/>
</svg>
