<svg width="29" height="23" viewBox="0 0 29 23" fill="none" xmlns="http://www.w3.org/2000/svg">
<path fill-rule="evenodd" clip-rule="evenodd" d="M13.1833 5.93332C13.1833 7.50356 11.7389 9.06665 9.58332 9.06665C7.42772 9.06665 5.98332 7.50356 5.98332 5.93332C5.98332 4.36308 7.42772 2.79999 9.58332 2.79999C11.7389 2.79999 13.1833 4.36308 13.1833 5.93332ZM15.1833 5.93332C15.1833 8.76838 12.6761 11.0667 9.58332 11.0667C6.49052 11.0667 3.98332 8.76838 3.98332 5.93332C3.98332 3.09826 6.49052 0.799988 9.58332 0.799988C12.6761 0.799988 15.1833 3.09826 15.1833 5.93332ZM22.5167 9.19999C22.5167 10.1573 21.7406 10.9333 20.7833 10.9333C19.826 10.9333 19.05 10.1573 19.05 9.19999C19.05 8.24269 19.826 7.46665 20.7833 7.46665C21.7406 7.46665 22.5167 8.24269 22.5167 9.19999ZM24.5167 9.19999C24.5167 11.2619 22.8452 12.9333 20.7833 12.9333C18.7215 12.9333 17.05 11.2619 17.05 9.19999C17.05 7.13812 18.7215 5.46665 20.7833 5.46665C22.8452 5.46665 24.5167 7.13812 24.5167 9.19999ZM4.43775 16.9535C2.99616 18.2113 2.18332 19.8209 2.18332 21.3333C2.18332 21.8856 1.7356 22.3333 1.18332 22.3333C0.631034 22.3333 0.183319 21.8856 0.183319 21.3333C0.183319 19.1124 1.35535 16.9887 3.12286 15.4465C4.90008 13.8958 7.34749 12.8667 10.05 12.8667C12.7525 12.8667 15.1999 13.8958 16.9771 15.4465C18.7446 16.9887 19.9167 19.1124 19.9167 21.3333C19.9167 21.8856 19.4689 22.3333 18.9167 22.3333C18.3644 22.3333 17.9167 21.8856 17.9167 21.3333C17.9167 19.8209 17.1038 18.2113 15.6622 16.9535C14.2303 15.7041 12.2444 14.8667 10.05 14.8667C7.85556 14.8667 5.86964 15.7041 4.43775 16.9535ZM20.9493 16.8339C21.3419 16.7679 21.7528 16.7333 22.1773 16.7333C24.7646 16.7333 26.5942 18.6577 26.2813 21.2117C26.2142 21.7599 26.6041 22.2587 27.1523 22.3259C27.7005 22.3931 28.1993 22.0031 28.2665 21.4549C28.7377 17.6089 25.8627 14.7333 22.1773 14.7333C21.6445 14.7333 21.1225 14.7767 20.6173 14.8617C20.0727 14.9534 19.7055 15.4692 19.7972 16.0138C19.8889 16.5584 20.4047 16.9256 20.9493 16.8339Z" fill="#BFBFBF"/>
</svg>
