<svg width="30" height="24" viewBox="0 0 30 24" fill="none" xmlns="http://www.w3.org/2000/svg">
<path fill-rule="evenodd" clip-rule="evenodd" d="M10 11C13.3137 11 16 8.53757 16 5.5C16 2.46243 13.3137 0 10 0C6.68629 0 4 2.46243 4 5.5C4 8.53757 6.68629 11 10 11ZM22 13C24.2091 13 26 11.2091 26 9C26 6.79086 24.2091 5 22 5C19.7909 5 18 6.79086 18 9C18 11.2091 19.7909 13 22 13ZM0 22.5C0 16.701 4.70101 13 10.5 13C16.299 13 21 16.701 21 22.5C21 23.3284 20.3284 24 19.5 24H1.5C0.671573 24 0 23.3284 0 22.5ZM22.4454 24C22.2914 24 22.1933 23.8318 22.2545 23.6905C22.4125 23.3255 22.5 22.923 22.5 22.5C22.5 19.6445 21.5218 17.2516 19.9131 15.4346C19.8076 15.3153 19.871 15.1245 20.0287 15.1022C20.5066 15.0346 20.9982 15 21.5 15C26.1944 15 30 18.0281 30 22.7727C30 23.4506 29.4505 24 28.7727 24H22.4454Z" fill="white"/>
</svg>
