<svg width="26" height="22" viewBox="0 0 26 22" fill="none" xmlns="http://www.w3.org/2000/svg">
<path d="M13.4495 0.240743C13.075 -0.080248 12.5224 -0.0802477 12.148 0.240744L0.851211 9.92367C0.146313 10.5279 0.573595 11.6829 1.502 11.6829H3.13208L4.52021 20.0117C4.68094 20.9761 5.51532 21.6829 6.493 21.6829H11.7987V14.1829C11.7987 13.9068 12.0226 13.6829 12.2987 13.6829H13.2987C13.5749 13.6829 13.7987 13.9068 13.7987 14.1829V21.6829H19.1045C20.0822 21.6829 20.9165 20.9761 21.0773 20.0117L22.4654 11.6829H24.0955C25.0239 11.6829 25.4512 10.5279 24.7463 9.92367L13.4495 0.240743Z" fill="white"/>
</svg>
