<svg width="25" height="22" viewBox="0 0 25 22" fill="none" xmlns="http://www.w3.org/2000/svg">
<path fill-rule="evenodd" clip-rule="evenodd" d="M4.60487 11.3541L4.32633 9.68292H3.70526L12.2987 2.31708L20.8922 9.68292H20.2712L19.9926 11.3541L18.6045 19.6829H13.2987V14.1829C13.2987 13.9068 13.0749 13.6829 12.7987 13.6829H11.7987C11.5226 13.6829 11.2987 13.9068 11.2987 14.1829V19.6829H5.993L4.60487 11.3541ZM11.2987 21.6829H5.993C5.01532 21.6829 4.18094 20.9761 4.02021 20.0117L2.63208 11.6829H1.002C0.073595 11.6829 -0.353687 10.5279 0.351211 9.92367L11.648 0.240744C12.0224 -0.0802476 12.575 -0.080248 12.9495 0.240743L24.2463 9.92367C24.9512 10.5279 24.5239 11.6829 23.5955 11.6829H21.9654L20.5773 20.0117C20.4165 20.9761 19.5822 21.6829 18.6045 21.6829H13.2987H11.2987Z" fill="#BFBFBF"/>
</svg>
