<svg width="21" height="20" viewBox="0 0 21 20" fill="none" xmlns="http://www.w3.org/2000/svg">
<path fill-rule="evenodd" clip-rule="evenodd" d="M13.75 14H12.75L12.15 14.8L10.75 16.6667L9.35 14.8L8.75 14H7.75H2.75V2H18.75V14H13.75ZM18.75 16H13.75L11.55 18.9333C11.15 19.4667 10.35 19.4667 9.95 18.9333L7.75 16H2.75C1.64543 16 0.75 15.1046 0.75 14V2C0.75 0.895431 1.64543 0 2.75 0H18.75C19.8546 0 20.75 0.895431 20.75 2V14C20.75 15.1046 19.8546 16 18.75 16ZM7.25 7C6.97386 7 6.75 7.22386 6.75 7.5V8.5C6.75 8.77614 6.97386 9 7.25 9H14.25C14.5261 9 14.75 8.77614 14.75 8.5V7.5C14.75 7.22386 14.5261 7 14.25 7H7.25Z" fill="#BFBFBF"/>
</svg>
