<svg width="21" height="21" viewBox="0 0 21 21" fill="none" xmlns="http://www.w3.org/2000/svg">
<path fill-rule="evenodd" clip-rule="evenodd" d="M14.5002 6C14.5002 8.20914 12.7093 10 10.5002 10C8.29101 10 6.50015 8.20914 6.50015 6C6.50015 3.79086 8.29101 2 10.5002 2C12.7093 2 14.5002 3.79086 14.5002 6ZM16.5002 6C16.5002 9.31371 13.8139 12 10.5002 12C7.18644 12 4.50015 9.31371 4.50015 6C4.50015 2.68629 7.18644 0 10.5002 0C13.8139 0 16.5002 2.68629 16.5002 6ZM2.35725 20.5151C3.9739 17.8253 7.00728 16 10.5002 16C13.993 16 17.0264 17.8253 18.643 20.5151C18.9276 20.9885 19.5419 21.1416 20.0153 20.8571C20.4887 20.5726 20.6418 19.9582 20.3573 19.4849C18.3809 16.1966 14.6988 14 10.5002 14C6.30149 14 2.61935 16.1966 0.643047 19.4849C0.358541 19.9582 0.511641 20.5726 0.985006 20.8571C1.45837 21.1416 2.07275 20.9885 2.35725 20.5151Z" fill="#BFBFBF"/>
</svg>
