<svg width="20" height="21" viewBox="0 0 20 21" fill="none" xmlns="http://www.w3.org/2000/svg">
<path fill-rule="evenodd" clip-rule="evenodd" d="M10.0002 12C13.3139 12 16.0002 9.31371 16.0002 6C16.0002 2.68629 13.3139 0 10.0002 0C6.68644 0 4.00015 2.68629 4.00015 6C4.00015 9.31371 6.68644 12 10.0002 12ZM1.85725 20.5151C3.4739 17.8253 6.50728 16 10.0002 16C13.493 16 16.5264 17.8253 18.143 20.5151C18.4276 20.9885 19.0419 21.1416 19.5153 20.8571C19.9887 20.5726 20.1418 19.9582 19.8573 19.4849C17.8809 16.1966 14.1988 14 10.0002 14C5.80149 14 2.11935 16.1966 0.143047 19.4849C-0.141459 19.9582 0.0116411 20.5726 0.485006 20.8571C0.958372 21.1416 1.57275 20.9885 1.85725 20.5151Z" fill="white"/>
</svg>
