<svg width="23" height="23" viewBox="0 0 23 23" fill="none" xmlns="http://www.w3.org/2000/svg">
<path fill-rule="evenodd" clip-rule="evenodd" d="M10 2C5.58172 2 2 5.58172 2 10C2 14.4183 5.58172 18 10 18C12.2715 18 14.3204 17.0547 15.7779 15.5332C17.1553 14.0954 18 12.1474 18 10C18 5.58172 14.4183 2 10 2ZM0 10C0 4.47715 4.47715 0 10 0C15.5228 0 20 4.47715 20 10C20 12.3304 19.2018 14.476 17.8653 16.1761L22.7071 21.0179L21.2929 22.4321L16.4786 17.6178C14.7341 19.1026 12.4712 20 10 20C4.47715 20 0 15.5228 0 10Z" fill="white"/>
</svg>
         